<svg width="23" height="22" viewBox="0 0 23 22" fill="none" xmlns="http://www.w3.org/2000/svg">
<path d="M21.2545 2.75974H20.1159V2.16127C20.1159 0.967632 19.1036 0 17.8547 0C16.6058 0 15.5935 0.967632 15.5935 2.16127V2.75974H7.90528V2.16127C7.90528 0.967632 6.89285 0 5.64394 0C4.39533 0 3.38279 0.967632 3.38279 2.16127V2.75974H2.24417C1.30759 2.75974 0.54834 3.4852 0.54834 4.38043V20.379C0.54834 21.2743 1.30759 22 2.24417 22H21.2546C22.1912 22 22.9504 21.2743 22.9504 20.379V4.38043C22.9504 3.4852 22.1911 2.75974 21.2545 2.75974ZM20.8128 20.0776H2.68593V6.72193H20.8128V20.0776Z" fill="white"/>
<path d="M19.853 13.1084C19.0592 12.714 18.1793 12.5907 17.2375 12.7418C16.1629 12.9143 15.1556 13.4116 14.3447 13.812C14.0707 13.9472 13.8121 14.0749 13.5788 14.1763C13.474 14.2221 13.3769 14.2522 13.2899 14.2662C13.086 14.2989 12.9438 14.2439 12.8554 14.0982C12.6178 13.7077 12.6337 12.7867 13.1417 12.3147C13.178 12.281 13.178 12.2256 13.1414 12.1886C13.1058 12.1526 13.0445 12.1461 13.0039 12.1752C12.8671 12.2736 12.6976 12.3412 12.5136 12.3708C12.1926 12.4223 11.8572 12.3553 11.6166 12.1914C11.4211 12.0582 11.3005 11.8695 11.2677 11.6455C11.2607 11.5956 11.2104 11.5579 11.1561 11.5616C11.1007 11.5652 11.0623 11.6089 11.0681 11.6588C11.1145 12.0533 10.9125 13.3668 10.275 13.7036C10.1278 13.7814 9.9842 13.6899 9.9842 13.6899C9.75583 13.5522 9.43854 13.0044 9.4032 12.9425C9.06129 12.3438 8.59311 11.5245 7.83578 10.7872C6.94183 9.91673 5.82397 9.35011 4.51339 9.1031C4.46235 9.09342 4.41303 9.12168 4.40026 9.16563C4.3872 9.21102 4.41404 9.25922 4.46275 9.2779C4.78936 9.40248 5.39802 9.77813 5.60715 10.3954C5.77232 10.8827 5.64077 11.4032 5.21623 11.9421C5.19294 11.972 5.19213 12.0121 5.2143 12.0444C5.23648 12.0769 5.27679 12.0948 5.3171 12.0896C6.1121 11.9898 6.44033 12.2654 6.55264 12.524C6.90112 13.3267 6.36326 13.6075 6.36326 13.6075C6.31738 13.6318 6.30199 13.6705 6.31546 13.7123C6.32943 13.7552 6.3745 13.7846 6.4225 13.7821C7.1537 13.7432 8.5924 14.4387 9.50153 15.2705C10.1266 15.8425 10.4535 16.4308 10.4221 16.9269C10.4194 16.9698 10.4492 17.0097 10.4946 17.0237C10.539 17.0375 10.5884 17.0205 10.6105 16.9852C10.8601 16.584 11.4594 16.289 12.2982 16.1543C12.9997 16.0416 13.8157 16.0484 14.5368 16.1725C15.2403 16.2936 15.7627 16.5174 15.9342 16.7714C15.9602 16.8099 16.0131 16.8279 16.0587 16.812C16.1042 16.7963 16.1285 16.7529 16.1168 16.7084C16.0429 16.4292 16.1055 16.1278 16.2929 15.8596C16.4971 15.5675 16.8216 15.3607 17.161 15.3062C17.3844 15.2703 17.6013 15.3 17.8052 15.3941C17.8401 15.4103 17.8832 15.4067 17.9124 15.385C17.9421 15.363 17.9544 15.3264 17.9438 15.2916C17.8433 14.9627 17.915 14.592 18.1459 14.2479C18.4722 13.7615 19.0571 13.398 19.6723 13.2992C19.7223 13.2911 19.7729 13.2849 19.8228 13.2805C19.8659 13.2767 19.9007 13.2467 19.9075 13.2078C19.9147 13.1679 19.8927 13.128 19.853 13.1084Z" fill="white"/>
</svg>
