<svg width="21" height="21" viewBox="0 0 21 21" fill="none" xmlns="http://www.w3.org/2000/svg">
<path d="M10.9118 9.31784L8.93741 11.2922L7.76007 10.1149C7.25971 9.61456 6.44846 9.61456 5.9481 10.1149C5.44775 10.6153 5.44775 11.4265 5.9481 11.9268L5.9481 11.9268L8.03144 14.0102L8.03146 14.0102C8.53184 14.5105 9.34299 14.5105 9.84337 14.0102L15.0517 8.80185C15.0517 8.80184 15.0517 8.80183 15.0517 8.80182C15.5521 8.30148 15.5521 7.49023 15.0517 6.98989C14.5513 6.48954 13.7402 6.48954 13.2398 6.98989L10.9118 9.31784L10.9118 9.31784ZM20.4166 10.5C20.4166 15.9768 15.9767 20.4167 10.4999 20.4167C5.02309 20.4167 0.583252 15.9768 0.583252 10.5C0.583252 5.02321 5.02309 0.583374 10.4999 0.583374C15.9767 0.583374 20.4166 5.02322 20.4166 10.5Z" fill="white" stroke="black"/>
</svg>
