<svg width="26" height="26" viewBox="0 0 26 26" fill="none" xmlns="http://www.w3.org/2000/svg">
<path d="M24.3773 10.093V3.46799L21.6725 6.12424C20.0141 4.22731 17.744 2.94561 15.2403 2.49263C12.7366 2.03964 10.1504 2.4427 7.91247 3.63469C5.67458 4.82667 3.92007 6.73563 2.94117 9.04359C1.96228 11.3516 1.81809 13.9192 2.53262 16.3189C3.24716 18.7186 4.77728 20.8054 6.86814 22.2318C8.959 23.6582 11.4844 24.3381 14.0236 24.1583C16.5629 23.9784 18.9628 22.9496 20.8235 21.2433C22.6843 19.5369 23.8936 17.256 24.2501 14.7805H22.0067C21.6545 16.7566 20.625 18.5552 19.0891 19.8779C17.5531 21.2006 15.6029 21.968 13.5619 22.0529C11.5209 22.1377 9.51164 21.5349 7.86738 20.3443C6.22312 19.1538 5.04263 17.4471 4.52166 15.5072C4.0007 13.5674 4.17057 11.5109 5.0031 9.67886C5.83563 7.84683 7.2808 6.34928 9.09896 5.43457C10.9171 4.51986 12.999 4.24294 14.9995 4.64973C16.9999 5.05652 18.7986 6.12258 20.0974 7.67112L17.6313 10.093H24.3773Z" fill="white"/>
<g clip-path="url(#clip0_105_970)">
<path d="M19.2467 12.546C19.1323 11.3125 18.4785 10.159 17.3965 9.28711C16.2147 8.33478 14.6483 7.8103 12.9858 7.8103C11.3233 7.8103 9.75686 8.33478 8.57501 9.28711C7.4931 10.159 6.83942 11.3124 6.72493 12.546C6.66601 12.5568 6.62158 12.6075 6.62158 12.6684V13.2035C6.62158 13.2723 6.67839 13.328 6.74829 13.328H7.07051C6.92959 13.7604 6.85229 14.2291 6.85229 14.7189C6.85229 16.8841 8.35895 18.6393 10.2176 18.6393C10.5096 18.6393 10.7929 18.596 11.063 18.5145C11.6266 18.9026 12.2838 19.1257 12.9858 19.1257C13.6879 19.1257 14.3451 18.9027 14.9086 18.5145C15.1788 18.5958 15.4621 18.6393 15.754 18.6393C17.6127 18.6393 19.1195 16.8841 19.1195 14.7189C19.1195 14.229 19.042 13.7603 18.9012 13.328H19.2234C19.2933 13.328 19.3501 13.2723 19.3501 13.2035V12.6684C19.35 12.6074 19.3056 12.5568 19.2467 12.546ZM9.31123 17.3832C9.29593 17.4129 9.26361 17.432 9.22918 17.432C9.21756 17.432 9.20626 17.4299 9.19561 17.4257C8.16646 17.0167 7.47516 15.8873 7.47516 14.6151C7.47516 13.3429 8.16646 12.2135 9.1955 11.8045C9.20647 11.8002 9.21799 11.798 9.22972 11.798C9.26426 11.798 9.29561 11.8167 9.31123 11.8469C9.33296 11.8888 9.31885 11.939 9.27831 11.964C8.43803 12.4806 7.91608 13.4965 7.91608 14.6151C7.91608 15.7337 8.43803 16.7496 9.27842 17.2662C9.3188 17.2912 9.33307 17.3414 9.31123 17.3832ZM16.8013 15.8248L16.1156 16.3173C15.984 16.4119 15.8481 16.5098 15.7132 16.605L15.1693 16.9888C15.1434 17.007 15.1088 17.0076 15.0824 16.9899L14.4687 16.5829C14.3401 16.4976 14.2103 16.4098 14.0847 16.3249C14.0284 16.2869 13.9721 16.2489 13.9159 16.211L13.9141 16.2099L13.6433 16.3953L13.0247 16.8309C13.013 16.8387 12.9998 16.8428 12.9864 16.8434C12.9862 16.8435 12.9861 16.8436 12.9859 16.8437C12.9858 16.8436 12.9855 16.8435 12.9855 16.8435C12.9687 16.8442 12.952 16.8397 12.9378 16.8297L12.3847 16.4337L12.0576 16.2099L12.056 16.211C11.9996 16.2489 11.9433 16.2869 11.8872 16.3249C11.7614 16.4098 11.6316 16.4976 11.503 16.5828L10.8894 16.9898C10.863 17.0074 10.8282 17.0069 10.8025 16.9887L10.2585 16.6049C10.1238 16.5098 9.98762 16.4119 9.8561 16.3173L9.17047 15.8248C9.14112 15.8037 9.13107 15.7651 9.14664 15.7328C9.16215 15.7006 9.1988 15.6834 9.23415 15.6921L10.6945 16.0545L11.9405 15.0102C11.9655 14.9893 12.0012 14.9866 12.0293 15.0031L12.9859 15.5721L13.9425 15.0032C13.9706 14.9867 14.0063 14.9894 14.0313 15.0104L15.2775 16.0546L16.7378 15.6922C16.773 15.6835 16.8098 15.7005 16.8252 15.7329C16.8407 15.7651 16.8306 15.8037 16.8013 15.8248ZM10.3684 13.8317L11.0016 12.4585C11.0136 12.4323 11.0401 12.4152 11.0695 12.4147C11.0989 12.4142 11.1258 12.4303 11.139 12.4562L11.8348 13.8346C11.8425 13.8463 11.8469 13.8601 11.8469 13.875C11.8469 13.9161 11.8128 13.9496 11.7709 13.9496C11.7708 13.9497 11.7705 13.9496 11.7704 13.9496C11.7702 13.9496 11.77 13.9496 11.7696 13.9496L10.437 13.9372C10.4113 13.9369 10.3875 13.9239 10.3736 13.9027C10.3598 13.8813 10.3579 13.8547 10.3684 13.8317ZM14.1248 13.8749C14.1248 13.8601 14.1292 13.8462 14.137 13.8346L14.8329 12.4561C14.8459 12.4303 14.873 12.4142 14.9023 12.4147C14.9318 12.4152 14.9581 12.4322 14.9703 12.4585L15.6034 13.8317C15.6139 13.8547 15.612 13.8814 15.5982 13.9026C15.5843 13.9238 15.5605 13.9369 15.5348 13.9371L14.2021 13.9495C14.2019 13.9495 14.2017 13.9495 14.2013 13.9495C14.2012 13.9495 14.201 13.9496 14.2008 13.9495C14.1589 13.9496 14.1248 13.9162 14.1248 13.8749ZM15.7541 10.7986C15.4622 10.7986 15.1788 10.8419 14.9086 10.9234C14.3451 10.5352 13.6879 10.3122 12.9858 10.3122C12.2838 10.3122 11.6266 10.5352 11.063 10.9234C10.7929 10.842 10.5097 10.7986 10.2176 10.7986C9.14972 10.7986 8.19819 11.3782 7.58159 12.2818C7.98398 10.2036 10.2538 8.60678 12.9858 8.60678C15.7177 8.60678 17.9869 10.2033 18.3897 12.2813C17.7731 11.3779 16.8216 10.7986 15.7541 10.7986Z" fill="white"/>
</g>
<defs>
<clipPath id="clip0_105_970">
<rect width="12.7285" height="12.5" fill="white" transform="translate(6.62158 7.21802)"/>
</clipPath>
</defs>
</svg>
