<svg width="27" height="25" viewBox="0 0 27 25" fill="none" xmlns="http://www.w3.org/2000/svg">
<g clip-path="url(#clip0_105_984)">
<path d="M26.2669 6.33009L24.3281 4.60268L25.8169 2.99125C25.9465 2.85068 25.9355 2.63321 25.7927 2.50611L24.247 1.12951C24.1045 1.0023 23.8827 1.01299 23.7535 1.15322L22.2647 2.76521L20.3256 1.03769C20.1831 0.910483 19.9613 0.921167 19.832 1.06151L18.4301 2.57901C18.3004 2.71924 18.3114 2.93682 18.454 3.06381L20.3932 4.79122L17.7752 7.47464C17.2824 7.10948 16.7267 6.82323 16.1197 6.62824C15.5318 6.43938 14.9162 6.34344 14.2896 6.34344C12.9866 6.34344 11.6731 6.75979 10.531 7.52617C9.38884 6.75979 8.07559 6.34344 6.77254 6.34344C6.14572 6.34344 5.53011 6.43915 4.94228 6.62824C3.31918 7.14999 2.06237 8.32026 1.40313 9.92346C0.762147 11.4825 0.765434 13.2719 1.41265 14.962C2.68579 18.288 9.28458 23.3241 10.0352 23.8893C10.1782 23.9974 10.354 24.051 10.5296 24.051C10.7069 24.051 10.8844 23.9962 11.0294 23.8873C11.7774 23.3239 18.3762 18.2878 19.6494 14.962C20.2964 13.2716 20.2999 11.4822 19.6587 9.92346C19.6178 9.82374 19.5746 9.72635 19.5292 9.62986L22.4564 6.62902L24.395 8.3562C24.5381 8.48364 24.7594 8.47295 24.889 8.3325L26.2908 6.81466C26.4209 6.67454 26.4098 6.45696 26.2669 6.33009Z" fill="white"/>
</g>
<defs>
<clipPath id="clip0_105_984">
<rect width="25.4569" height="25" fill="white" transform="translate(0.924316)"/>
</clipPath>
</defs>
</svg>
