<svg width="27" height="25" viewBox="0 0 27 25" fill="none" xmlns="http://www.w3.org/2000/svg">
<path d="M19.0328 11.8338L19.0328 11.8338C18.6409 12.2043 18.1274 12.1656 17.5714 12.076V9.87167C18.207 9.7672 18.8237 10.0128 19.1603 10.4005C19.3347 10.6012 19.4309 10.836 19.4225 11.0779C19.4141 11.3186 19.3015 11.5799 19.0328 11.8338Z" fill="white" stroke="black" stroke-width="0.2"/>
<path d="M8.02245 12.0441C7.96684 12.0428 7.91121 12.0418 7.85562 12.041V9.8531C9.03158 9.68328 9.62714 10.2483 9.68319 10.8046C9.71243 11.0949 9.60107 11.4011 9.33306 11.6373C9.06475 11.8737 8.63401 12.0439 8.02245 12.0441Z" fill="white" stroke="black" stroke-width="0.2"/>
<path d="M20.1832 10.0505L20.1562 10.0754L20.133 10.0967M20.1832 10.0505L20.1781 10.0453L20.1781 10.0453L20.1788 10.0459L20.1804 10.0474L20.1789 10.046L20.1783 10.0455L20.133 10.0967M20.1832 10.0505C20.1844 10.0516 20.1855 10.0528 20.1866 10.054M20.1832 10.0505L20.1866 10.054M20.133 10.0967L20.1167 10.1151L20.1164 10.1154M20.133 10.0967L20.1169 10.1115L20.1099 10.118L20.1164 10.1154M20.1164 10.1154L20.1147 10.1174L20.1164 10.1154ZM20.1164 10.1154L20.1173 10.1148L20.1293 10.1058L20.1495 10.0907L20.1911 10.0596C20.1901 10.0581 20.189 10.0568 20.188 10.0556C20.1875 10.055 20.1871 10.0545 20.1866 10.054M20.1164 10.1154L20.1866 10.054M6.16606 9.5597L6.19822 9.36568C6.42442 9.36147 6.65842 9.35278 6.90344 9.34369L6.91239 9.34336L6.91241 9.34335L6.92137 9.34303C7.27821 9.32986 7.6486 9.3162 8.01393 9.3162C8.74859 9.3162 9.30902 9.37374 9.77287 9.50013C10.133 9.59825 10.4214 9.75834 10.6174 9.97233C10.815 10.188 10.9147 10.4543 10.9013 10.7526C10.8687 11.4791 10.1916 12.1308 9.35474 12.2957L9.35455 12.2958C9.3528 12.2961 9.35135 12.2966 9.35018 12.297L10.6741 13.9272L10.6742 13.9274C11.0629 14.4079 11.4489 14.7458 12.0433 14.8735L12.0223 15.0712H10.6658H10.6184L10.5884 15.0345L8.44348 12.4092L8.44327 12.4089L8.44244 12.4082C8.44207 12.4079 8.44158 12.4076 8.44095 12.4073C8.44051 12.407 8.44002 12.4068 8.43945 12.4065L6.16606 9.5597ZM6.16606 9.5597C6.46074 9.66633 6.69512 10.004 6.85529 10.5015C7.01341 10.9927 7.08977 11.6117 7.08977 12.2323C7.08977 12.8449 7.01326 13.4559 6.85483 13.9415C6.69449 14.433 6.45962 14.7687 6.16323 14.8774L6.19767 15.0712H8.26476L8.29335 14.8754C8.17321 14.8396 8.07192 14.7816 7.98851 14.7022C7.80195 14.5247 7.71565 14.2499 7.68638 13.9231C7.65722 13.5976 7.68603 13.2397 7.7127 12.9112L7.71272 12.911L7.71494 12.883C7.72856 12.7111 7.74181 12.5441 7.74202 12.4082C7.74438 12.4065 7.75004 12.4041 7.75714 12.4045L7.76237 12.3046M6.16606 9.5597L8.42772 12.4044C8.3186 12.4082 8.18826 12.4121 8.05501 12.4121C7.94804 12.4121 7.85031 12.4097 7.75675 12.4044L7.76237 12.3046M7.76237 12.3046C7.73168 12.303 7.7005 12.3126 7.67767 12.3316L8.42486 12.3045C8.31587 12.3082 8.18671 12.3121 8.05501 12.3121C7.94953 12.3121 7.85371 12.3097 7.76237 12.3046ZM24.3851 21.8066V21.9066H24.4851H25.5358C26.1596 21.9066 26.6441 22.3523 26.6442 22.8774V23.9293C26.6442 24.4542 26.1597 24.9 25.5359 24.9H1.20826C0.58448 24.9 0.1 24.4542 0.1 23.9293V22.8774C0.1 22.3523 0.584467 21.9067 1.20826 21.9067H2.25909H2.35909V21.8067V9.84791C2.35909 7.41887 3.36345 5.19602 5.02711 3.48734L6.79676 3.98036L7.49031 6.86023L7.49041 6.86063C7.52321 6.9944 7.65949 7.07076 7.79083 7.05436L7.79106 7.05433C7.9284 7.03685 8.04647 6.91798 8.02229 6.7681C8.02228 6.76804 8.02227 6.76798 8.02226 6.76792L7.52064 3.63644L7.52062 3.63633L7.50082 3.51181L7.49234 3.45844L7.44304 3.43629L7.28428 3.36499L7.28427 3.36498L5.85651 2.72352C7.82339 1.09702 10.4652 0.1 13.3721 0.1C16.5512 0.1 19.4137 1.29222 21.423 3.19662L20.2082 3.7422L20.2082 3.7422L19.9418 3.86191L19.8484 3.90386L19.8925 3.99621L19.9958 4.21258L19.9958 4.2126L20.7486 5.79045L19.5405 7.01454C19.4404 7.11593 19.4474 7.27363 19.5543 7.36745L19.5548 7.36785C19.66 7.45907 19.8249 7.45854 19.9289 7.36472L21.3748 6.0625L21.3749 6.06246L21.4716 5.97545L21.5237 5.92864L21.4975 5.86371L21.4466 5.73743L21.4465 5.73725L20.8734 4.30806L22.1435 3.95415C23.5507 5.59216 24.3851 7.63412 24.3851 9.84781V21.8066ZM7.92355 6.78392C7.93696 6.86669 7.87184 6.94324 7.77844 6.95513L7.92355 6.78392ZM17.5567 12.6419C17.5661 12.5484 17.575 12.4706 17.5818 12.4145C17.6138 12.4183 17.6517 12.4227 17.6927 12.4271C17.8099 12.4395 17.9571 12.4525 18.0657 12.4525C18.5284 12.4525 19.0517 12.366 19.5042 12.1986C19.9531 12.0327 20.3511 11.78 20.5373 11.4344C20.7677 11.007 20.6251 10.5371 20.1926 10.0604L20.1895 10.0549L20.18 10.0465C19.8724 9.71392 19.4378 9.53137 18.9786 9.43098C18.5171 9.33008 18.0204 9.30999 17.5811 9.30999C17.2115 9.30999 16.8465 9.32625 16.4962 9.34186L16.4958 9.34188L16.4957 9.34189L16.4727 9.34289C16.2755 9.35154 16.0867 9.35982 15.9085 9.36474L15.8776 9.55885C16.1717 9.66415 16.4059 10.0013 16.5661 10.4994C16.7241 10.991 16.8005 11.6111 16.8005 12.2327C16.8005 12.8453 16.7242 13.4562 16.5664 13.9419C16.4066 14.4335 16.1726 14.769 15.8777 14.8776L15.9122 15.0715H17.9814L18.01 14.8756C17.8897 14.8397 17.7881 14.7815 17.7044 14.702C17.6676 14.6668 17.6322 14.6071 17.6018 14.5192C17.5718 14.4324 17.5492 14.3256 17.5331 14.2041C17.5011 13.9611 17.4967 13.671 17.5056 13.3897C17.5146 13.1091 17.5368 12.8406 17.5567 12.6419ZM20.1834 10.0504C20.1837 10.0507 20.184 10.051 20.1843 10.0514L20.1833 10.0505L20.1834 10.0504ZM20.1848 10.0518C20.1843 10.0513 20.1838 10.0508 20.1834 10.0504L20.1848 10.0518ZM12.7716 9.36856L12.7349 9.56158C13.0172 9.67292 13.2265 10.0203 13.3628 10.5289C13.497 11.0294 13.5514 11.6524 13.5513 12.2595V12.2595C13.5513 12.9757 13.5352 13.6175 13.3613 14.0852L13.3612 14.0852C13.1693 14.602 12.9261 14.804 12.7268 14.8775L12.7614 15.0713H14.9504L14.987 14.8783C14.7034 14.7669 14.4938 14.4196 14.3575 13.9112C14.2233 13.4109 14.1693 12.7881 14.1693 12.1811C14.1693 11.4641 14.1829 10.8228 14.3578 10.3549C14.551 9.8382 14.7944 9.63607 14.9946 9.56241L14.9601 9.36856H12.7716Z" fill="white" stroke="black" stroke-width="0.2"/>
</svg>
