<svg width="21" height="21" viewBox="0 0 21 21" fill="none" xmlns="http://www.w3.org/2000/svg">
<path fill-rule="evenodd" clip-rule="evenodd" d="M20.5262 10.4584C20.5262 15.8661 16.0622 20.25 10.5556 20.25C5.04896 20.25 0.584961 15.8661 0.584961 10.4584C0.584961 5.05056 5.04896 0.666687 10.5556 0.666687C16.0622 0.666687 20.5262 5.05056 20.5262 10.4584ZM14.574 7.49116C14.8661 7.77794 14.8661 8.24293 14.574 8.52969L9.58874 13.4255C9.2967 13.7123 8.82329 13.7123 8.53122 13.4255L6.5371 11.4672C6.24507 11.1804 6.24507 10.7155 6.5371 10.4287C6.82913 10.1419 7.30261 10.1419 7.59464 10.4287L9.05999 11.8677L11.2882 9.67943L13.5166 7.49116C13.8086 7.20437 14.282 7.20437 14.574 7.49116Z" fill="white"/>
</svg>
