<svg width="98" height="103" viewBox="0 0 98 103" fill="none" xmlns="http://www.w3.org/2000/svg">
<path d="M97.6759 28.2524C93.0768 25.4718 87.9787 24.6025 82.5243 25.6682C76.2995 26.8845 70.4644 30.391 65.766 33.2135C64.1792 34.166 62.6813 35.0671 61.3299 35.7818C60.7225 36.1043 60.1606 36.3171 59.6566 36.4158C58.4757 36.6463 57.6519 36.2584 57.1396 35.2307C55.7647 32.477 55.8553 25.9839 58.7989 22.656C59.0091 22.4187 59.0091 22.0283 58.7976 21.7675C58.5912 21.5138 58.2366 21.4661 57.9999 21.6726C57.2075 22.3662 56.2256 22.8432 55.1602 23.0516C53.3002 23.4146 51.3572 22.9424 49.9636 21.7877C48.8311 20.8481 48.1318 19.5177 47.9427 17.9394C47.9009 17.5871 47.61 17.3214 47.296 17.3474C46.9753 17.3734 46.7523 17.6805 46.7862 18.0328C47.0551 20.8149 45.885 30.0757 42.1916 32.4501C41.3393 32.9978 40.5076 32.3533 40.5076 32.3533C39.1847 31.383 37.3467 27.5208 37.1415 27.0837C35.1608 22.8634 32.4485 17.0861 28.0616 11.8877C22.8833 5.75074 16.4073 1.75571 8.81534 0.0132945C8.51991 -0.0545729 8.2344 0.144216 8.16034 0.454192C8.0842 0.774758 8.2402 1.11458 8.52239 1.24598C10.4146 2.12441 13.9404 4.77316 15.1519 9.12534C16.1089 12.5616 15.3468 16.2312 12.8869 20.0313C12.7516 20.2412 12.747 20.5242 12.8761 20.7528C13.0048 20.9824 13.2382 21.1066 13.4715 21.071C18.0769 20.3678 19.9786 22.3114 20.629 24.1342C22.6478 29.7941 19.5325 31.7733 19.5325 31.7733C19.2665 31.9447 19.1775 32.2176 19.2557 32.5127C19.3364 32.8154 19.5975 33.0224 19.8755 33.0041C24.1109 32.7293 32.4452 37.6335 37.7121 43.4985C41.3326 47.5316 43.2265 51.6787 43.0448 55.177C43.0287 55.4803 43.2012 55.7609 43.4648 55.8595C43.7218 55.9563 44.0081 55.8374 44.1355 55.5871C45.5817 52.7593 49.0533 50.6795 53.9122 49.7298C57.9759 48.9361 62.7028 48.9828 66.8795 49.8578C70.956 50.7117 73.9811 52.2905 74.975 54.0796C75.1252 54.3515 75.4318 54.4776 75.6954 54.3665C75.9589 54.2562 76.1004 53.9487 76.0318 53.6344C75.6035 51.6667 75.966 49.5411 77.0517 47.65C78.2347 45.5913 80.1141 44.1329 82.0807 43.7488C83.3746 43.4961 84.6308 43.705 85.8134 44.3688C86.0153 44.4824 86.2644 44.4578 86.4345 44.3043C86.6066 44.1498 86.6774 43.8913 86.6157 43.6458C86.0331 41.3268 86.4489 38.7141 87.7859 36.2868C89.6756 32.8573 93.0644 30.2942 96.6282 29.5977C96.9183 29.5404 97.2116 29.4971 97.5 29.4654C97.75 29.4389 97.9515 29.2271 97.9916 28.9527C98.0326 28.6726 97.9051 28.3915 97.6759 28.2524Z" fill="black"/>
<path d="M58.3274 55.8942C54.9382 56.1445 51.8245 57.6636 49.0742 60.4091C45.9353 63.542 43.6806 67.8071 41.8658 71.2399C41.2526 72.399 40.6741 73.4945 40.1242 74.4273C39.8772 74.8475 39.6236 75.1883 39.3699 75.441C38.7741 76.0354 38.1994 76.1423 37.6126 75.7673C36.0399 74.7637 34.2019 71.0845 34.885 68.0583C34.9338 67.8422 34.8205 67.6232 34.626 67.5602C34.4365 67.499 34.2234 67.6117 34.151 67.8206C33.9081 68.5223 33.496 69.176 32.9585 69.7132C32.0205 70.6484 30.7928 71.1485 29.6752 71.0488C28.7665 70.9675 27.987 70.4968 27.4218 69.6852C27.296 69.5038 27.0552 69.4696 26.8868 69.6073C26.7142 69.7483 26.6786 70.0082 26.7999 70.193C27.7602 71.6476 29.7977 77.3047 28.4161 80.0911C28.0971 80.7337 27.4429 80.7 27.4429 80.7C26.418 80.6764 24.2634 79.2329 24.021 79.0683C21.6819 77.4804 18.4789 75.3062 14.5054 74.1164C9.81401 72.7114 5.01796 73.0194 0.251273 75.0304C0.0659016 75.1084 -0.0367145 75.3327 0.0121109 75.5358C0.0625914 75.7457 0.24879 75.8747 0.445333 75.8371C1.76279 75.5854 4.5115 75.6836 6.45789 77.6484C7.99424 79.2006 8.63434 81.5592 8.36001 84.6594C8.34512 84.8298 8.42497 84.9906 8.56359 85.0685C8.70262 85.147 8.86978 85.1248 8.9906 85.0127C11.3698 82.8048 13.0026 83.1471 13.898 83.9143C16.6773 86.295 15.5051 88.6323 15.5051 88.6323C15.4058 88.833 15.4351 89.0217 15.5651 89.156C15.6983 89.2941 15.9052 89.3076 16.0558 89.1877C18.3527 87.3659 24.4558 86.8365 29.1174 88.0542C32.3225 88.8922 34.5917 90.4734 35.5073 92.508C35.5864 92.6846 35.7651 92.7741 35.9414 92.7255C36.1139 92.6788 36.2397 92.4993 36.2385 92.3087C36.2273 90.1528 37.57 87.6186 40.0204 85.173C42.0698 83.1273 44.7358 81.293 47.3338 80.1397C49.869 79.0144 52.0265 78.7087 53.1043 79.3224C53.2682 79.4153 53.4767 79.3657 53.5926 79.1997C53.7076 79.0331 53.6981 78.8055 53.5682 78.6558C52.7555 77.721 52.3405 76.3849 52.3997 74.8966C52.4646 73.2755 53.0952 71.7179 54.0866 70.7273C54.7392 70.0761 55.5051 69.6987 56.3612 69.6058C56.5076 69.5899 56.64 69.4778 56.6909 69.3252C56.7427 69.1712 56.7071 68.9979 56.6007 68.8843C55.5994 67.8124 55.0727 66.1831 55.1165 64.2943C55.179 61.6263 56.3347 58.8539 58.1321 57.0605C58.2782 56.9141 58.43 56.7736 58.5831 56.6427C58.7155 56.5291 58.7668 56.3317 58.7093 56.1613C58.6502 55.9885 58.4971 55.8812 58.3274 55.8942Z" fill="black"/>
<path d="M91.1814 93.2305C88.6301 92.4801 85.8971 92.6798 83.6975 92.8401C82.9548 92.8936 82.253 92.9455 81.6344 92.9552C81.3559 92.96 81.1106 92.9311 80.9045 92.87C80.4204 92.728 80.1622 92.419 80.1146 91.927C79.9868 90.6077 80.9579 88.1472 82.5609 87.4517C82.6755 87.4016 82.7317 87.2529 82.6887 87.1123C82.6465 86.9751 82.5178 86.8875 82.3982 86.9212C81.9956 87.0314 81.5525 87.0218 81.1151 86.8928C80.353 86.6685 79.6793 86.1092 79.3144 85.3973C79.0173 84.8178 78.9424 84.1733 79.098 83.5341C79.1327 83.3916 79.0599 83.2333 78.9366 83.1818C78.8096 83.1298 78.6809 83.203 78.6428 83.3435C78.3441 84.4578 76.5628 87.7645 74.81 87.9498C74.4058 87.9927 74.1811 87.584 74.1811 87.584C73.8161 86.9549 73.6713 85.123 73.6556 84.9165C73.5087 82.9195 73.306 80.185 72.3812 77.3457C71.2896 73.9927 69.3937 71.2049 66.7481 69.0581C66.645 68.9749 66.5072 68.9951 66.4344 69.0986C66.3587 69.2059 66.3699 69.3662 66.4584 69.4711C67.0534 70.1758 68.0179 71.8739 67.8528 73.7718C67.7225 75.2702 66.9028 76.5221 65.4157 77.492C65.3342 77.5459 65.2912 77.6532 65.3077 77.7654C65.3238 77.878 65.3946 77.9709 65.4889 78.0031C67.348 78.6332 67.7932 79.746 67.7788 80.5686C67.7333 83.1231 66.2586 83.2703 66.2586 83.2703C66.1324 83.2833 66.0595 83.3705 66.0463 83.499C66.0335 83.6299 66.103 83.7599 66.2118 83.8075C67.8677 84.529 70.3413 88.0273 71.5065 91.2931C72.3067 93.539 72.4308 95.4913 71.8578 96.7909C71.8077 96.903 71.8329 97.0441 71.9194 97.1331C72.0034 97.2202 72.13 97.2308 72.2148 97.1601C73.1744 96.363 74.7993 96.247 76.7912 96.8318C78.4566 97.3218 80.2536 98.2618 81.7217 99.4098C83.1542 100.531 84.0815 101.725 84.2027 102.601C84.2209 102.734 84.3198 102.843 84.4361 102.852C84.5524 102.861 84.6512 102.771 84.6699 102.638C84.7899 101.804 85.2347 101.064 85.9219 100.553C86.6701 99.9985 87.5977 99.8083 88.4038 100.045C88.9342 100.201 89.3836 100.526 89.7386 101.01C89.7994 101.093 89.8987 101.132 89.9856 101.106C90.0738 101.081 90.1375 100.996 90.1495 100.89C90.2616 99.8916 90.7966 98.9756 91.6577 98.3109C92.8734 97.3704 94.5363 97.0537 95.9965 97.4826C96.1153 97.5172 96.2336 97.5576 96.3487 97.6024C96.4475 97.6409 96.5555 97.5995 96.6102 97.5023C96.666 97.4031 96.6577 97.2717 96.5903 97.1735C95.2377 95.2145 93.4179 93.888 91.1814 93.2305Z" fill="black"/>
</svg>
